<?xml version="1.0" encoding="UTF-8" standalone="no"?>
<!-- Created with Inkscape (http://www.inkscape.org/) -->

<svg
   xmlns:dc="http://purl.org/dc/elements/1.1/"
   xmlns:cc="http://creativecommons.org/ns#"
   xmlns:rdf="http://www.w3.org/1999/02/22-rdf-syntax-ns#"
   xmlns:svg="http://www.w3.org/2000/svg"
   xmlns="http://www.w3.org/2000/svg"
   xmlns:sodipodi="http://sodipodi.sourceforge.net/DTD/sodipodi-0.dtd"
   xmlns:inkscape="http://www.inkscape.org/namespaces/inkscape"
   id="svg2996"
   version="1.1"
   inkscape:version="0.48.4 r9939"
   width="1579"
   height="2891"
   sodipodi:docname="logo.svg"
   shape-rendering="geometricPrecision">
  <metadata
     id="metadata3002">
    <rdf:RDF>
      <cc:Work
         rdf:about="">
        <dc:format>image/svg+xml</dc:format>
        <dc:type
           rdf:resource="http://purl.org/dc/dcmitype/StillImage" />
        <dc:title></dc:title>
      </cc:Work>
    </rdf:RDF>
  </metadata>
  <defs
     id="defs3000" />
  <sodipodi:namedview
     pagecolor="#ffffff"
     bordercolor="#666666"
     borderopacity="1"
     objecttolerance="10"
     gridtolerance="10"
     guidetolerance="10"
     inkscape:pageopacity="0"
     inkscape:pageshadow="2"
     inkscape:window-width="640"
     inkscape:window-height="480"
     id="namedview2998"
     showgrid="false"
     inkscape:zoom="0.081632653"
     inkscape:cx="789.5"
     inkscape:cy="1425.7726"
     inkscape:window-x="553"
     inkscape:window-y="279"
     inkscape:window-maximized="0"
     inkscape:current-layer="svg2996" />
  <path
     style="fill:#000000"
     d="m 773.63426,2889.2172 c -0.26608,-0.4305 -6.39384,-28.443 -13.61724,-62.25 C 650.47357,2314.2819 604.12888,2111.6085 552.85229,1921 500.62717,1726.8655 443.29244,1555.6134 365.19849,1360.5 300.43494,1198.6919 230.78979,1038.2021 42.828141,617.63203 19.754771,566.00465 1.1279727,523.10889 1.4352556,522.30813 3.2576633,517.55901 6.1554114,523.28528 38.220587,595 c 226.586783,506.7681 305.023283,689.8039 374.837993,874.7045 32.70187,86.6091 70.71495,197.6627 96.28607,281.2955 49.95772,163.3915 95.98967,345.6175 159.64905,632 37.33012,167.9359 109.39221,503.552 108.57683,505.6768 -0.553,1.4411 -3.15854,1.7988 -3.93627,0.5404 z M 1573.6618,2877.25 c -0.2509,-0.4125 -4.3654,-15.375 -9.1433,-33.25 -4.7779,-17.875 -15.3662,-57.475 -23.5296,-88 -8.1634,-30.525 -27.0546,-101.175 -41.9805,-157 -14.9258,-55.825 -32.2556,-120.625 -38.5106,-144 -19.1564,-71.5883 -51.6986,-193.2879 -94.1239,-352 -22.2736,-83.325 -54.1654,-202.575 -70.8707,-265 -16.7052,-62.425 -44.3837,-165.925 -61.5078,-230 -17.124,-64.075 -49.0721,-183.55 -70.9956,-265.5 -21.9235,-81.95 -57.1876,-213.8 -78.3645,-293 -21.1769,-79.2 -68.9468,-257.85 -106.15523,-397 C 941.27163,513.35 887.00713,310.41273 857.89227,201.52829 828.77742,92.643856 805.17691,2.9813555 805.4467,2.2782939 c 0.5434,-1.41605938 3.15479,-1.7321195 3.93123,-0.4758021 0.27279,0.4413705 24.79318,91.6788702 54.48977,202.7499982 83.20846,311.21615 263.8081,986.58591 317.1325,1185.94751 26.333,98.45 62.555,233.9 80.4933,301 79.6473,297.9288 119.5884,447.2959 146.0017,546 15.6011,58.3 53.6255,200.5 84.4988,316 30.8733,115.5 62.8744,235.1615 71.1135,265.9145 8.2391,30.7529 14.7496,56.5154 14.4678,57.25 -0.5496,1.4322 -3.1608,1.8229 -3.9135,0.5855 z"
     id="path3008"
     inkscape:connector-curvature="0" />
</svg>
