<?xml version="1.0" encoding="UTF-8" standalone="no"?>
<svg width="220px" height="75px" viewBox="0 0 220 75" version="1.1" xmlns="http://www.w3.org/2000/svg" xmlns:xlink="http://www.w3.org/1999/xlink" xmlns:sketch="http://www.bohemiancoding.com/sketch/ns">
    <!-- Generator: Sketch Beta 3.0.2 (7863) - http://www.bohemiancoding.com/sketch -->
    <title>background</title>
    <desc>Created with Sketch Beta.</desc>
    <defs></defs>
    <g id="Welcome" stroke="none" stroke-width="1" fill="none" fill-rule="evenodd" sketch:type="MSPage">
        <g id="btn:appstore-2" sketch:type="MSLayerGroup">
            <rect id="background" fill="#000000" sketch:type="MSShapeGroup" x="0" y="0" width="220" height="75" rx="8.98128"></rect>
            <g id="icon" transform="translate(15.512525, 13.200000)" fill="#FFFFFF" sketch:type="MSShapeGroup">
                <path d="M20.7091722,46.0380952 L4.04483714,46.0380952 C1.90072261,46.0380952 0.154141277,44.263528 0.154141277,42.073497 L0.154141277,4.22698354 C0.154141277,2.03695258 1.90072261,0.257142857 4.04483714,0.257142857 L20.7091722,0.257142857 C22.850722,0.257142857 24.5985857,2.03695258 24.5985857,4.22698354 L24.5985857,42.073497 C24.5985857,44.263528 22.850722,46.0380952 20.7091722,46.0380952 Z M10.39759,3.72921905 L14.34989,3.72921905 C14.6083046,3.72921905 14.8208079,3.53284286 14.8208079,3.30634762 C14.8208079,3.06539524 14.6083046,2.87142857 14.34989,2.87142857 L10.39759,2.87142857 C10.1470459,2.87142857 9.93191906,3.06539524 9.93191906,3.30634762 C9.93191906,3.53284286 10.1470459,3.72921905 10.39759,3.72921905 Z M12.444351,40.0142857 C11.2600714,40.0142857 10.2942379,40.9678127 10.2942379,42.1390956 C10.2942379,43.3063209 11.2600714,44.2571429 12.444351,44.2571429 C13.6354999,44.2571429 14.5985857,43.3063209 14.5985857,42.1390956 C14.5985857,40.9678127 13.6354999,40.0142857 12.444351,40.0142857 Z M2.59858572,5.25714286 L22.1541413,5.25714286 L22.1541413,38.2571429 L2.59858572,38.2571429 L2.59858572,5.25714286 Z M60.8866106,45.2383033 L56.7632071,45.2383033 L54.5045044,38.0538455 L46.6535152,38.0538455 L44.5019374,45.2383033 L40.4874746,45.2383033 L48.2676524,20.7791667 L53.0719349,20.7791667 L60.8866106,45.2383033 L60.8866106,45.2383033 Z M53.8236254,35.0396447 L51.7809883,28.6546852 C51.5649226,28.0003831 51.1582109,26.4638758 50.5626687,24.0451635 L50.4900416,24.0451635 C50.2503722,25.0854304 49.8672642,26.6219376 49.3425335,28.6546852 L47.3343942,35.0396447 L53.8236254,35.0396447 L53.8236254,35.0396447 Z M80.855431,36.2030527 C80.855431,39.20255 80.0510859,41.5734763 78.44058,43.3139934 C76.9989322,44.8633661 75.2068585,45.6371335 73.0698062,45.6371335 C70.7620802,45.6371335 69.102551,44.8045525 68.09485,43.1338765 L68.09485,52.3878405 L64.2238257,52.3878405 L64.2238257,33.3983756 C64.2238257,31.5145001 64.1748024,29.5828385 64.0803872,27.6015528 L67.4847824,27.6015528 L67.700848,30.3988782 L67.7734751,30.3988782 C69.0644218,28.2907756 71.0235377,27.2376432 73.6526386,27.2376432 C75.7079855,27.2376432 77.4238007,28.0591967 78.7964528,29.7041417 C80.1672893,31.3527625 80.855431,33.5178409 80.855431,36.2030527 L80.855431,36.2030527 Z M76.9117796,36.346411 C76.9117796,34.6297869 76.5304874,33.2145828 75.7642715,32.1007989 C74.9272442,30.9410668 73.8033399,30.3584438 72.3943742,30.3584438 C71.4393279,30.3584438 70.571434,30.681919 69.7961398,31.3215177 C69.0190298,31.9629543 68.5106402,32.8028871 68.2727864,33.8449919 C68.1529517,34.3283668 68.0930343,34.7235212 68.0930343,35.0359688 L68.0930343,37.9803284 C68.0930343,39.2595258 68.4815893,40.342065 69.2586993,41.2279459 C70.0358092,42.110151 71.0453259,42.5530915 72.2872492,42.5530915 C73.7452382,42.5530915 74.8800366,41.9814961 75.6916444,40.847495 C76.5050679,39.709818 76.9117796,38.2100693 76.9117796,36.346411 L76.9117796,36.346411 Z M100.895063,36.2030527 C100.895063,39.20255 100.090718,41.5734763 98.4802119,43.3139934 C97.0367483,44.8633661 95.2464904,45.6371335 93.1076224,45.6371335 C90.801712,45.6371335 89.1421829,44.8045525 88.1326662,43.1338765 L88.1326662,52.3878405 L84.2616419,52.3878405 L84.2616419,33.3983756 C84.2616419,31.5145001 84.2126186,29.5828385 84.1182034,27.6015528 L87.5225986,27.6015528 L87.7386642,30.3988782 L87.8112913,30.3988782 C89.1004223,28.2907756 91.0595382,27.2376432 93.6904548,27.2376432 C95.743986,27.2376432 97.4616169,28.0591967 98.8360847,29.7041417 C100.205105,31.3527625 100.895063,33.5178409 100.895063,36.2030527 L100.895063,36.2030527 Z M96.9495958,36.346411 C96.9495958,34.6297869 96.5664879,33.2145828 95.800272,32.1007989 C94.9650604,30.9410668 93.8429717,30.3584438 92.434006,30.3584438 C91.4789597,30.3584438 90.6110659,30.681919 89.8321403,31.3215177 C89.056846,31.9629543 88.5484563,32.8028871 88.3106026,33.8449919 C88.1925836,34.3283668 88.1290348,34.7235212 88.1290348,35.0359688 L88.1290348,37.9803284 C88.1290348,39.2595258 88.5194055,40.342065 89.2928841,41.2279459 C90.069994,42.1083131 91.0795107,42.5530915 92.3250654,42.5530915 C93.7848701,42.5530915 94.9196684,41.9814961 95.7294606,40.847495 C96.5428841,39.709818 96.9495958,38.2100693 96.9495958,36.346411 L96.9495958,36.346411 Z M123.300522,38.3791586 C123.300522,40.4596923 122.58333,42.1524234 121.152576,43.4591897 C119.580199,44.8854213 117.385045,45.600375 114.570745,45.600375 C111.970695,45.600375 109.886298,45.0931071 108.313921,44.0767333 L109.20905,40.8107364 C110.906708,41.8271102 112.771409,42.3362161 114.801336,42.3362161 C116.261141,42.3362161 117.395939,42.0017133 118.205732,41.3382216 C119.019155,40.6710539 119.427682,39.7833351 119.427682,38.673227 C119.427682,37.6789083 119.089966,36.8444893 118.421797,36.1662941 C117.751812,35.4917748 116.644249,34.8595278 115.090029,34.2824186 C110.859501,32.6852598 108.742421,30.3474162 108.742421,27.2762397 C108.742421,25.2692231 109.49048,23.6261161 110.981151,22.3414049 C112.473638,21.0585316 114.452726,20.417095 116.914785,20.417095 C119.11357,20.417095 120.945589,20.8048976 122.399946,21.578665 L121.428559,24.7729827 C120.059538,24.0231084 118.514397,23.6481712 116.785872,23.6481712 C115.420482,23.6481712 114.347417,23.9881878 113.583017,24.664545 C112.938451,25.2692231 112.609814,26.0062319 112.609814,26.8810853 C112.609814,27.8459972 112.982028,28.6473335 113.72464,29.2740667 C114.367389,29.8548517 115.540317,30.4852608 117.23616,31.161618 C119.316926,32.0107405 120.843911,32.9995454 121.824377,34.1353844 C122.81029,35.2712235 123.300522,36.6882655 123.300522,38.3791586 M136.131915,30.5422365 L131.865073,30.5422365 L131.865073,39.1051399 C131.865073,41.2830837 132.616763,42.3692988 134.123776,42.3692988 C134.815549,42.3692988 135.389303,42.3104851 135.843222,42.187344 L135.950347,45.1629483 C135.187763,45.4515029 134.183693,45.5966991 132.94177,45.5966991 C131.411154,45.5966991 130.218253,45.1225139 129.353991,44.1796572 C128.49336,43.2349625 128.063044,41.6525071 128.063044,39.4249392 L128.063044,30.5348848 L125.522912,30.5348848 L125.522912,27.5942011 L128.063044,27.5942011 L128.063044,24.3649628 L131.865073,23.2033928 L131.865073,27.5942011 L136.131915,27.5942011 L136.131915,30.5422365 M155.345414,36.2747318 C155.345414,38.9856746 154.581013,41.2114046 153.050397,42.9519217 C151.450785,44.7420629 149.322811,45.6371335 146.670107,45.6371335 C144.110002,45.6371335 142.074627,44.7788215 140.556721,43.0621974 C139.038814,41.3455733 138.279861,39.1804949 138.279861,36.5688002 C138.279861,33.8358023 139.06605,31.5972068 140.627532,29.8566897 C142.192646,28.1161725 144.302463,27.243157 146.955168,27.243157 C149.513458,27.243157 151.565173,28.1051449 153.121209,29.8199311 C154.606433,31.4869312 155.345414,33.6354682 155.345414,36.2747318 L155.345414,36.2747318 Z M151.332766,36.3647903 C151.332766,34.7492522 150.987788,33.363455 150.296015,32.2037228 C149.484407,30.8032222 148.320558,30.1048098 146.817177,30.1048098 C145.268404,30.1048098 144.075504,30.8032222 143.267527,32.2037228 C142.572123,33.363455 142.22896,34.7731452 142.22896,36.4383074 C142.22896,38.0556834 142.572123,39.4451564 143.267527,40.5993748 C144.104555,42.0017133 145.272035,42.7019636 146.78631,42.7019636 C148.264272,42.7019636 149.424489,41.985172 150.265148,40.5662921 C150.975078,39.378991 151.332766,37.9840042 151.332766,36.3647903 L151.332766,36.3647903 Z M167.933505,31.0476665 C167.550397,30.9759874 167.140054,30.9410668 166.71337,30.9410668 C165.351612,30.9410668 164.298519,31.4575243 163.557723,32.5014671 C162.913157,33.4204307 162.591782,34.5820008 162.591782,35.9843393 L162.591782,45.2383033 L158.720758,45.2383033 L158.720758,33.1557692 C158.720758,31.1248595 158.682629,29.2703908 158.608186,27.6033908 L161.979899,27.6033908 L162.121522,30.9778253 L162.228647,30.9778253 C162.63899,29.8180932 163.28174,28.8825882 164.164159,28.1841758 C165.028421,27.5519288 165.958048,27.2376432 166.962118,27.2376432 C167.319806,27.2376432 167.642997,27.2652121 167.929874,27.3093224 L167.933505,31.0476665 M185.24599,35.5855091 C185.24599,36.2875973 185.200598,36.8794099 185.104367,37.3627848 L173.493109,37.3627848 C173.53487,39.1051399 174.099546,40.4394751 175.176242,41.3584388 C176.154893,42.1781543 177.422235,42.5898501 178.97464,42.5898501 C180.694086,42.5898501 182.262831,42.314161 183.673613,41.7554311 L184.280049,44.4755635 C182.631414,45.2015448 180.683192,45.5654544 178.439015,45.5654544 C175.737287,45.5654544 173.616576,44.7604422 172.07325,43.1540937 C170.535371,41.5459073 169.761892,39.3826669 169.761892,36.6772379 C169.761892,34.019595 170.477269,31.8048926 171.915286,30.0386445 C173.418667,28.152931 175.45041,27.2100743 178.006884,27.2100743 C180.517965,27.2100743 182.41898,28.152931 183.708111,30.0386445 C184.732153,31.5328794 185.24599,33.3855101 185.24599,35.5855091 L185.24599,35.5855091 Z M181.554717,34.5691353 C181.581952,33.4057273 181.327758,32.4058948 180.803027,31.5567724 C180.133042,30.4650436 179.101737,29.9210171 177.720007,29.9210171 C176.452664,29.9210171 175.423175,30.4521781 174.638802,31.5181759 C173.994236,32.3654604 173.611129,33.3855101 173.493109,34.5654594 L181.554717,34.5691353 Z M50.5654746,10.811 C50.0214746,11.066 49.1374746,11.236 48.2874746,11.236 C45.7714746,11.236 44.2924746,9.621 44.2924746,7.105 C44.2924746,4.351 45.9754746,2.889 48.3044746,2.889 C49.2564746,2.889 50.0044746,3.093 50.5484746,3.331 L51.0074746,1.665 C50.5824746,1.444 49.5964746,1.155 48.2194746,1.155 C44.7174746,1.155 42.0994746,3.433 42.0994746,7.207 C42.0994746,10.692 44.3094746,12.97 47.9474746,12.97 C49.3244746,12.97 50.4124746,12.715 50.9054746,12.46 L50.5654746,10.811 Z M55.9904746,4.334 C53.4914746,4.334 51.7064746,6 51.7064746,8.72 C51.7064746,11.372 53.5084746,12.987 55.8544746,12.987 C57.9624746,12.987 60.1044746,11.627 60.1044746,8.584 C60.1044746,6.068 58.4554746,4.334 55.9904746,4.334 Z M55.9394746,5.864 C57.3674746,5.864 57.9454746,7.343 57.9454746,8.635 C57.9454746,10.301 57.1124746,11.474 55.9224746,11.474 C54.6474746,11.474 53.8654746,10.267 53.8654746,8.669 C53.8654746,7.292 54.4604746,5.864 55.9394746,5.864 Z M61.7214746,12.8 L63.7614746,12.8 L63.7614746,7.904 C63.7614746,7.666 63.7954746,7.428 63.8804746,7.224 C64.0674746,6.646 64.5944746,6.034 65.3764746,6.034 C66.3454746,6.034 66.8044746,6.85 66.8044746,8.006 L66.8044746,12.8 L68.8444746,12.8 L68.8444746,7.836 C68.8444746,7.598 68.8954746,7.343 68.9464746,7.139 C69.1674746,6.544 69.6944746,6.034 70.4084746,6.034 C71.4114746,6.034 71.8874746,6.85 71.8874746,8.227 L71.8874746,12.8 L73.9274746,12.8 L73.9274746,7.921 C73.9274746,5.269 72.5334746,4.334 71.1564746,4.334 C70.4764746,4.334 69.9494746,4.504 69.4904746,4.827 C69.0994746,5.065 68.7594746,5.405 68.4704746,5.864 L68.4364746,5.864 C68.0794746,4.946 67.2294746,4.334 66.1414746,4.334 C64.7474746,4.334 63.9994746,5.099 63.5914746,5.745 L63.5404746,5.745 L63.4554746,4.521 L61.6534746,4.521 C61.7044746,5.235 61.7214746,6.034 61.7214746,6.986 L61.7214746,12.8 Z M78.1454746,12.8 L78.1454746,4.521 L76.0374746,4.521 L76.0374746,12.8 L78.1454746,12.8 Z M77.0914746,1.07 C76.3944746,1.07 75.9184746,1.563 75.9184746,2.209 C75.9184746,2.838 76.3774746,3.331 77.0744746,3.331 C77.8054746,3.331 78.2644746,2.838 78.2644746,2.209 C78.2474746,1.563 77.8054746,1.07 77.0914746,1.07 Z M80.2894746,12.8 L82.3974746,12.8 L82.3974746,7.938 C82.3974746,7.7 82.4144746,7.445 82.4824746,7.258 C82.7034746,6.629 83.2814746,6.034 84.1144746,6.034 C85.2534746,6.034 85.6954746,6.935 85.6954746,8.125 L85.6954746,12.8 L87.7864746,12.8 L87.7864746,7.887 C87.7864746,5.269 86.2904746,4.334 84.8454746,4.334 C83.4684746,4.334 82.5674746,5.116 82.2104746,5.762 L82.1594746,5.762 L82.0574746,4.521 L80.2214746,4.521 C80.2724746,5.235 80.2894746,6.034 80.2894746,6.986 L80.2894746,12.8 Z M95.6594746,4.521 L95.5744746,5.626 L95.5404746,5.626 C95.1494746,4.946 94.4014746,4.334 93.1434746,4.334 C91.1544746,4.334 89.3864746,5.983 89.3864746,8.703 C89.3864746,11.049 90.8484746,12.749 92.9054746,12.749 C93.9934746,12.749 94.8434746,12.256 95.3194746,11.525 L95.3534746,11.525 L95.3534746,12.239 C95.3534746,14.024 94.3334746,14.738 92.9734746,14.738 C91.9704746,14.738 91.0864746,14.415 90.5594746,14.109 L90.1004746,15.69 C90.8144746,16.132 91.9364746,16.353 92.9904746,16.353 C94.1294746,16.353 95.3194746,16.115 96.1864746,15.35 C97.0534746,14.568 97.4104746,13.327 97.4104746,11.593 L97.4104746,6.901 C97.4104746,5.762 97.4444746,5.082 97.4784746,4.521 L95.6594746,4.521 Z M95.3194746,9.179 C95.3194746,9.417 95.2854746,9.706 95.2344746,9.927 C94.9964746,10.675 94.3164746,11.185 93.5344746,11.185 C92.2254746,11.185 91.5114746,10.046 91.5114746,8.635 C91.5114746,6.952 92.3784746,5.932 93.5514746,5.932 C94.4354746,5.932 95.0304746,6.51 95.2514746,7.275 C95.3024746,7.445 95.3194746,7.649 95.3194746,7.836 L95.3194746,9.179 Z M102.463475,12.392 C103.075475,12.732 103.976475,12.97 104.979475,12.97 C107.172475,12.97 108.345475,11.882 108.345475,10.386 C108.328475,9.162 107.631475,8.397 106.135475,7.853 C105.081475,7.479 104.690475,7.224 104.690475,6.697 C104.690475,6.187 105.098475,5.83 105.846475,5.83 C106.577475,5.83 107.240475,6.102 107.597475,6.306 L108.005475,4.827 C107.529475,4.572 106.730475,4.334 105.812475,4.334 C103.891475,4.334 102.684475,5.473 102.684475,6.935 C102.667475,7.904 103.347475,8.788 104.962475,9.349 C105.982475,9.706 106.322475,9.995 106.322475,10.556 C106.322475,11.1 105.914475,11.474 104.996475,11.474 C104.248475,11.474 103.347475,11.168 102.871475,10.879 L102.463475,12.392 Z M113.719475,4.334 C111.220475,4.334 109.435475,6 109.435475,8.72 C109.435475,11.372 111.237475,12.987 113.583475,12.987 C115.691475,12.987 117.833475,11.627 117.833475,8.584 C117.833475,6.068 116.184475,4.334 113.719475,4.334 Z M113.668475,5.864 C115.096475,5.864 115.674475,7.343 115.674475,8.635 C115.674475,10.301 114.841475,11.474 113.651475,11.474 C112.376475,11.474 111.594475,10.267 111.594475,8.669 C111.594475,7.292 112.189475,5.864 113.668475,5.864 Z M123.207475,4.334 C120.708475,4.334 118.923475,6 118.923475,8.72 C118.923475,11.372 120.725475,12.987 123.071475,12.987 C125.179475,12.987 127.321475,11.627 127.321475,8.584 C127.321475,6.068 125.672475,4.334 123.207475,4.334 Z M123.156475,5.864 C124.584475,5.864 125.162475,7.343 125.162475,8.635 C125.162475,10.301 124.329475,11.474 123.139475,11.474 C121.864475,11.474 121.082475,10.267 121.082475,8.669 C121.082475,7.292 121.677475,5.864 123.156475,5.864 Z M128.938475,12.8 L131.046475,12.8 L131.046475,7.938 C131.046475,7.7 131.063475,7.445 131.131475,7.258 C131.352475,6.629 131.930475,6.034 132.763475,6.034 C133.902475,6.034 134.344475,6.935 134.344475,8.125 L134.344475,12.8 L136.435475,12.8 L136.435475,7.887 C136.435475,5.269 134.939475,4.334 133.494475,4.334 C132.117475,4.334 131.216475,5.116 130.859475,5.762 L130.808475,5.762 L130.706475,4.521 L128.870475,4.521 C128.921475,5.235 128.938475,6.034 128.938475,6.986 L128.938475,12.8 Z M142.338475,2.651 L142.338475,4.521 L141.148475,4.521 L141.148475,6.085 L142.338475,6.085 L142.338475,9.978 C142.338475,11.066 142.542475,11.814 142.984475,12.29 C143.375475,12.715 144.021475,12.97 144.786475,12.97 C145.449475,12.97 145.993475,12.885 146.299475,12.766 L146.265475,11.168 C146.078475,11.219 145.806475,11.27 145.449475,11.27 C144.650475,11.27 144.378475,10.743 144.378475,9.74 L144.378475,6.085 L146.367475,6.085 L146.367475,4.521 L144.378475,4.521 L144.378475,2.158 L142.338475,2.651 Z M151.503475,4.334 C149.004475,4.334 147.219475,6 147.219475,8.72 C147.219475,11.372 149.021475,12.987 151.367475,12.987 C153.475475,12.987 155.617475,11.627 155.617475,8.584 C155.617475,6.068 153.968475,4.334 151.503475,4.334 Z M151.452475,5.864 C152.880475,5.864 153.458475,7.343 153.458475,8.635 C153.458475,10.301 152.625475,11.474 151.435475,11.474 C150.160475,11.474 149.378475,10.267 149.378475,8.669 C149.378475,7.292 149.973475,5.864 151.452475,5.864 Z M161.010475,2.651 L161.010475,4.521 L159.820475,4.521 L159.820475,6.085 L161.010475,6.085 L161.010475,9.978 C161.010475,11.066 161.214475,11.814 161.656475,12.29 C162.047475,12.715 162.693475,12.97 163.458475,12.97 C164.121475,12.97 164.665475,12.885 164.971475,12.766 L164.937475,11.168 C164.750475,11.219 164.478475,11.27 164.121475,11.27 C163.322475,11.27 163.050475,10.743 163.050475,9.74 L163.050475,6.085 L165.039475,6.085 L165.039475,4.521 L163.050475,4.521 L163.050475,2.158 L161.010475,2.651 Z M166.520475,12.8 L168.628475,12.8 L168.628475,7.853 C168.628475,7.615 168.645475,7.394 168.713475,7.224 C168.934475,6.595 169.512475,6.051 170.328475,6.051 C171.484475,6.051 171.926475,6.952 171.926475,8.159 L171.926475,12.8 L174.017475,12.8 L174.017475,7.921 C174.017475,5.269 172.538475,4.334 171.127475,4.334 C170.600475,4.334 170.107475,4.47 169.699475,4.708 C169.257475,4.946 168.917475,5.269 168.662475,5.66 L168.628475,5.66 L168.628475,0.73 L166.520475,0.73 L166.520475,12.8 Z M183.165475,9.247 C183.199475,9.06 183.233475,8.754 183.233475,8.363 C183.233475,6.544 182.349475,4.334 179.663475,4.334 C177.011475,4.334 175.617475,6.493 175.617475,8.788 C175.617475,11.321 177.198475,12.97 179.884475,12.97 C181.074475,12.97 182.060475,12.749 182.774475,12.46 L182.468475,11.015 C181.839475,11.253 181.142475,11.389 180.173475,11.389 C178.847475,11.389 177.674475,10.743 177.623475,9.247 L183.165475,9.247 Z M177.623475,7.785 C177.708475,6.935 178.252475,5.762 179.544475,5.762 C180.938475,5.762 181.278475,7.02 181.261475,7.785 L177.623475,7.785 Z" id="Fill-28"></path>
            </g>
        </g>
    </g>
</svg>