<svg xmlns="http://www.w3.org/2000/svg" xmlns:xlink="http://www.w3.org/1999/xlink" version="1.1" id="Layer_1" x="0px" y="0px" width="100px" height="100px" viewBox="0 0 100 100" enable-background="new 0 0 100 100" xml:space="preserve">
<g id="Captions">
	<rect x="-192" width="185" height="99"/>
	<rect y="-36" width="100" height="30"/>
	<text transform="matrix(1 0 0 1 66 -19.5)" fill="#000000" font-family="'Helvetica'" font-size="2.4">http://thenounproject.com</text>
	<text transform="matrix(1 0 0 1 7.166 -24.5)" fill="#000000" font-family="'Helvetica-Bold'" font-size="6.1578">The Noun Project</text>
	<text transform="matrix(1 0 0 1 8.2861 -19.6992)" fill="#000000" font-family="'Helvetica-Bold'" font-size="4">Icon Template</text>
	<text transform="matrix(1 0 0 1 -178.5 10.5)" fill="#000000" font-family="'Helvetica-Bold'" font-size="6.1578">Reminders</text>
	<line fill="#000000" stroke="#FFFFFF" stroke-miterlimit="10" x1="8" y1="-14.5" x2="18" y2="-14.5"/>
	<line fill="#000000" stroke="#FFFFFF" stroke-miterlimit="10" x1="-179" y1="16.5" x2="-162" y2="16.5"/>
	<g>
		<g>
			<g>
				<rect x="-170.802" y="31.318" fill="#000000" width="8.721" height="8.642"/>
				<path fill="#000000" d="M-164.455,42.312h4.747v-4.703h-4.747V42.312z M-159.266,42.749h-5.63V37.17h5.63V42.749      L-159.266,42.749z M-166.221,44.062h8.279v-8.203h-8.279V44.062L-166.221,44.062z M-157.5,44.5h-9.163v-9.079h9.163V44.5      L-157.5,44.5z"/>
				<polygon fill="#000000" points="-166.149,44.133 -166.292,43.991 -158.013,35.787 -157.871,35.929     "/>
			</g>
		</g>
	</g>
	<rect x="-179" y="58" fill="none" width="35" height="32.5"/>
	<text transform="matrix(1 0 0 1 -179 60.1582)" fill="#000000" font-family="'Helvetica-Bold'" font-size="3">Strokes</text>
	<text transform="matrix(1 0 0 1 -179 65.1582)" fill="#000000" font-family="'Helvetica'" font-size="2.4">Try to keep strokes at 4px</text>
	<text transform="matrix(1 0 0 1 -179 70.1582)" fill="#000000" font-family="'Helvetica'" font-size="2.4">Minimum stroke weight is 2px</text>
	<text transform="matrix(1 0 0 1 -179 74.6582)" fill="#000000" font-family="'Helvetica'" font-size="2.4">For thicker strokes use even </text>
	<text transform="matrix(1 0 0 1 -179 77.6582)" fill="#000000" font-family="'Helvetica'" font-size="2.4">numbers: 6px, 8px etc.</text>
	<text transform="matrix(1 0 0 1 -179 82.1582)" fill="#000000" font-family="'Helvetica-Bold'" font-size="2.4">Remember to expand strokes </text>
	<text transform="matrix(1 0 0 1 -179 85.1582)" fill="#000000" font-family="'Helvetica-Bold'" font-size="2.4">before saving as an SVG </text>
	<rect x="-136.5" y="58" fill="none" width="35" height="32.5"/>
	<text transform="matrix(1 0 0 1 -136.5 60.1582)" fill="#000000" font-family="'Helvetica-Bold'" font-size="3">Size</text>
	<text transform="matrix(1 0 0 1 -136.5 65.1582)" fill="#000000" font-family="'Helvetica'" font-size="2.4">Cannot be wider or taller than </text>
	<text transform="matrix(1 0 0 1 -136.5 68.6582)" fill="#000000" font-family="'Helvetica'" font-size="2.4">100px (artboard size)</text>
	<text transform="matrix(1 0 0 1 -136.5 73.6582)" fill="#000000" font-family="'Helvetica'" font-size="2.4">Scale your icon to fill as much of </text>
	<text transform="matrix(1 0 0 1 -136.5 76.6582)" fill="#000000" font-family="'Helvetica'" font-size="2.4">the artboard as possible</text>
	<rect x="-94" y="58" fill="none" width="35" height="32.5"/>
	<text transform="matrix(1 0 0 1 -94 60.1582)" fill="#000000" font-family="'Helvetica-Bold'" font-size="3">Ungroup</text>
	<text transform="matrix(1 0 0 1 -94 65.1582)" fill="#000000" font-family="'Helvetica'" font-size="2.4">If your design has more than one </text>
	<text transform="matrix(1 0 0 1 -94 68.1582)" fill="#000000" font-family="'Helvetica'" font-size="2.4">shape, make sure to ungroup</text>
	<rect x="-50" y="58" fill="none" width="35" height="32.5"/>
	<text transform="matrix(1 0 0 1 -50 60.1582)" fill="#000000" font-family="'Helvetica-Bold'" font-size="3">Save as</text>
	<text transform="matrix(1 0 0 1 -50 65.1582)" fill="#000000" font-family="'Helvetica'" font-size="2.4">Save as .SVG and make sure </text>
	<text transform="matrix(1 0 0 1 -50 68.1582)" fill="#000000" font-family="'Helvetica'" font-size="2.4">&#8220;Use Artboards&#8221; is checked</text>
	<text transform="matrix(1.0074 0 0 1 -125.542 30.5938)" fill="#000000" font-family="'Helvetica'" font-size="2.5731">100px</text>
	<text transform="matrix(1.0074 0 0 1 -41 39)" fill="#000000" font-family="'Helvetica-Bold'" font-size="5.1462">.SVG</text>
	<rect x="-126.514" y="34.815" fill="#000000" width="10.261" height="10.185"/>
	<rect x="-126.477" y="31.766" fill="#000000" width="0.522" height="2.337"/>
	<rect x="-116.812" y="31.766" fill="#000000" width="0.523" height="2.337"/>
	<rect x="-127" y="32.337" fill="#000000" width="11.233" height="0.572"/>
	<g>
		<rect x="-83.805" y="33.844" fill="#000000" width="10.305" height="10.156"/>
		<rect x="-76.809" y="28.707" fill="#000000" width="3.308" height="3.261"/>
	</g>
	<rect x="-178.5" y="22.5" fill="#000000" stroke="#FFFFFF" stroke-miterlimit="10" width="30" height="30"/>
	<rect x="-136.5" y="22.5" fill="#000000" stroke="#FFFFFF" stroke-miterlimit="10" width="30" height="30"/>
	<rect x="-93.5" y="22.5" fill="#000000" stroke="#FFFFFF" stroke-miterlimit="10" width="30" height="30"/>
	<rect x="-49.5" y="22.5" fill="#000000" stroke="#FFFFFF" stroke-miterlimit="10" width="30" height="30"/>
</g>
<path fill="#000000" stroke="#000000" stroke-width="0.1674" stroke-miterlimit="10" d="M70.356,26.04"/>
<path d="M92.854,41.811c0.01-0.168,0.017-0.338,0.017-0.508c0-5.901-6.593-10.685-14.725-10.685c-0.803,0-1.592,0.049-2.36,0.139  c-0.309-0.116-0.614-0.235-0.928-0.347c-0.031-0.012-0.064-0.024-0.097-0.036c-1.902-0.671-3.878-1.263-5.916-1.773  c-0.299-1.4-0.612-2.71-0.941-3.946C61.933,2.197,51.289,5.877,51.289,5.877c-3.025,0.807-5.594,3.646-7.748,7.443  c2.106,4.597,4.009,10.272,5.614,18.159c0.015,0.073,0.057,0.541,0.769,0.524c0.713-0.016,2.119,0.058,4.513,1.428  c0,0,10.957,5.868-13.732,19.515c0,0-29.966,17.501,24.488,25.159c6.873-1.342,13.166-3.58,18.428-6.625  c8.173-4.729,12.894-10.825,13.433-17.286c0.69-1.257,1.074-2.633,1.074-4.078C98.128,46.762,96.069,43.77,92.854,41.811z   M63.154,65.722h-3.377v1.813c0,0.763-0.62,1.384-1.383,1.384s-1.385-0.621-1.385-1.384v-1.813h-3.376  c-0.223,0-0.403-0.18-0.403-0.403c0-8.949,2.557-17.732,5.164-17.732c2.605,0,5.163,8.783,5.163,17.732  C63.558,65.542,63.378,65.722,63.154,65.722z M75.386,51.986h-3.377V53.8c0,0.765-0.62,1.384-1.383,1.384s-1.384-0.619-1.384-1.384  v-1.813h-3.377c-0.222,0-0.404-0.181-0.404-0.402c0-8.95,2.558-17.733,5.165-17.733c2.605,0,5.163,8.784,5.163,17.733  C75.789,51.806,75.609,51.986,75.386,51.986z M88.427,60.941h-3.375v1.815c0,0.762-0.622,1.383-1.385,1.383  c-0.762,0-1.383-0.621-1.383-1.383v-1.815h-3.377c-0.223,0-0.403-0.18-0.403-0.402c0-9.55,2.84-17.732,5.163-17.732  c2.325,0,5.164,8.183,5.164,17.732C88.831,60.762,88.651,60.941,88.427,60.941z"/>
<path d="M10.43,67.644c-0.083-0.069-0.169-0.14-0.251-0.212C10.25,67.517,10.334,67.587,10.43,67.644z"/>
<path d="M11.767,66.162"/>
<path d="M52.06,37.107c-0.447,1.089-1.688,1.729-2.666,2.341c-1.386,0.869-2.867,1.585-4.358,2.255  c-3.623,1.624-7.376,2.928-11.105,4.284c-5.269,1.915-10.944,3.278-15.707,6.338c-2.294,1.477-4.308,3.398-5.478,5.892  c-1.156,2.461-1.855,5.406-0.938,8.064c0.209,0.61,0.165,1.283-0.575,1.45c-0.777,0.177-1.3-0.503-1.817-0.974  c-1.182-1.082-2.279-2.261-3.243-3.54c-1.707-2.266-2.987-4.876-3.478-7.685c-0.168-0.965-0.248-1.888-0.109-2.854  c0.179-1.246,0.375-2.491,0.582-3.733c0.517-3.096,1.103-6.182,1.758-9.254c1.413-6.619,3.125-13.201,5.454-19.561  C13.49,11.635,20.999-4.824,32.56,2.36c4.888,3.036,7.867,8.671,9.98,13.833c1.041,2.541,1.907,5.153,2.658,7.793  c0.445,1.561,0.848,3.133,1.218,4.713c0.209,0.892,0.407,1.786,0.595,2.681c0.134,0.633,0.262,1.604,0.832,1.715  c0.638,0.124,2.129,0.251,3.076,0.754C51.941,34.394,52.479,36.085,52.06,37.107z"/>
<path d="M93.886,65.514c-0.01,0-0.019,0-0.027,0c-0.02,0-0.038,0-0.059,0c-0.138,0.01-0.265,0.054-0.376,0.123  c-0.063,0.044-0.123,0.093-0.175,0.152c-0.013,0.016-0.025,0.03-0.038,0.046c-2.4,3.143-5.762,5.976-9.987,8.421  c-8.951,5.182-20.836,8.034-33.463,8.034s-24.512-2.853-33.465-8.034c-4.863-2.812-8.556-6.115-10.976-9.814  c-0.153-0.233-0.41-0.364-0.675-0.364c-0.107,0-0.215,0.021-0.318,0.064c-0.36,0.155-0.557,0.546-0.466,0.927  c1.748,7.379,4.972,13.697,9.58,18.78c3.773,4.162,8.491,7.523,14.025,9.986c9.659,4.301,19,4.636,21.633,4.636  c0.38,0,0.613-0.008,0.677-0.01c29.458-0.006,40.648-17.328,44.846-31.879c0.027-0.082,0.043-0.173,0.043-0.266  C94.664,65.882,94.318,65.526,93.886,65.514z"/>
</svg>