<svg xmlns="http://www.w3.org/2000/svg" xmlns:xlink="http://www.w3.org/1999/xlink" version="1.1" id="Layer_1" x="0px" y="0px" width="100px" height="100px" viewBox="0 0 100 100" enable-background="new 0 0 100 100" xml:space="preserve">
<path fill="#000000" d="M79.406,35.795c0.002-0.004,0.003-0.008,0.005-0.012c0.032-0.059,0.057-0.122,0.08-0.184  c0.013-0.03,0.028-0.06,0.038-0.091c0.015-0.045,0.021-0.093,0.03-0.14c0.011-0.049,0.024-0.097,0.03-0.146  c0.003-0.026,0-0.052,0.001-0.078c0.004-0.07,0.009-0.14,0.003-0.209c-0.003-0.034-0.014-0.067-0.019-0.101  c-0.01-0.062-0.018-0.125-0.035-0.186c-0.008-0.029-0.022-0.056-0.032-0.084c-0.023-0.065-0.046-0.13-0.078-0.192  c-0.002-0.004-0.003-0.008-0.005-0.012c-0.016-0.029-0.037-0.053-0.054-0.081c-0.032-0.052-0.063-0.105-0.103-0.154  c-0.032-0.041-0.07-0.076-0.106-0.112c-0.031-0.032-0.061-0.066-0.096-0.096c-0.053-0.044-0.109-0.081-0.167-0.117  c-0.023-0.015-0.042-0.033-0.066-0.046l-0.022-0.013c-0.003-0.001-0.005-0.002-0.007-0.004L60.999,23.734  c-0.01-0.006-0.021-0.008-0.031-0.014c-0.042-0.022-0.087-0.04-0.132-0.058c-0.05-0.021-0.099-0.042-0.149-0.058  c-0.028-0.008-0.059-0.012-0.088-0.019c-0.066-0.015-0.133-0.03-0.2-0.036c-0.022-0.002-0.045,0-0.066-0.001  c-0.074-0.003-0.147-0.005-0.221,0.003c-0.026,0.002-0.054,0.01-0.08,0.015c-0.068,0.011-0.136,0.022-0.201,0.042  c-0.032,0.01-0.062,0.024-0.094,0.037c-0.061,0.022-0.12,0.046-0.178,0.077c-0.009,0.004-0.018,0.006-0.026,0.011l-9.287,5.199  l-9.288-5.199c-0.009-0.005-0.018-0.007-0.027-0.012c-0.058-0.031-0.118-0.054-0.178-0.077c-0.031-0.012-0.061-0.026-0.092-0.036  c-0.068-0.021-0.139-0.034-0.209-0.044c-0.024-0.003-0.048-0.01-0.072-0.013c-0.079-0.008-0.158-0.007-0.237-0.003  c-0.016,0-0.032-0.001-0.048,0c-0.074,0.006-0.147,0.022-0.221,0.04c-0.022,0.005-0.045,0.008-0.066,0.014  c-0.057,0.017-0.111,0.041-0.167,0.065c-0.039,0.016-0.078,0.031-0.116,0.051c-0.011,0.006-0.023,0.009-0.035,0.015L21.684,33.737  c-0.001,0-0.002,0.001-0.002,0.001l-0.025,0.014c-0.027,0.015-0.048,0.035-0.073,0.051c-0.054,0.035-0.109,0.069-0.159,0.111  c-0.037,0.032-0.068,0.067-0.102,0.102c-0.034,0.035-0.07,0.068-0.102,0.106c-0.04,0.05-0.071,0.104-0.104,0.157  c-0.017,0.027-0.037,0.05-0.052,0.079c-0.002,0.004-0.003,0.008-0.005,0.012c-0.03,0.059-0.052,0.121-0.074,0.183  c-0.012,0.032-0.027,0.062-0.037,0.095c-0.014,0.048-0.019,0.099-0.028,0.148c-0.008,0.046-0.021,0.092-0.025,0.139  c-0.003,0.039,0.001,0.079,0.001,0.118c0,0.057-0.004,0.114,0.002,0.17c0.004,0.04,0.017,0.08,0.024,0.119  c0.011,0.056,0.019,0.112,0.036,0.166c0.01,0.031,0.026,0.061,0.038,0.092c0.024,0.062,0.047,0.124,0.08,0.182  c0.002,0.004,0.003,0.008,0.005,0.013c0.007,0.012,0.018,0.021,0.024,0.032c0.054,0.09,0.117,0.173,0.189,0.25  c0.025,0.027,0.05,0.052,0.077,0.077c0.064,0.06,0.136,0.113,0.212,0.163c0.027,0.017,0.053,0.038,0.081,0.053  c0.008,0.005,0.015,0.011,0.023,0.016l7.996,4.225l-6.946,3.354c-0.028,0.014-0.052,0.033-0.079,0.048  c-0.047,0.026-0.093,0.053-0.137,0.084c-0.041,0.029-0.078,0.061-0.115,0.094c-0.036,0.031-0.071,0.062-0.104,0.097  c-0.038,0.041-0.072,0.084-0.105,0.128c-0.019,0.024-0.04,0.044-0.057,0.069c-0.008,0.012-0.012,0.025-0.02,0.037  c-0.029,0.046-0.052,0.094-0.076,0.143c-0.02,0.042-0.042,0.083-0.058,0.125c-0.017,0.044-0.027,0.09-0.04,0.136  c-0.013,0.048-0.027,0.096-0.035,0.145c-0.008,0.046-0.009,0.093-0.012,0.139c-0.003,0.049-0.008,0.098-0.007,0.147  c0.001,0.047,0.009,0.094,0.015,0.141c0.006,0.049,0.011,0.099,0.022,0.148c0.01,0.042,0.024,0.084,0.038,0.126  c0.017,0.054,0.035,0.106,0.058,0.157c0.005,0.013,0.008,0.026,0.014,0.038c0.008,0.016,0.021,0.027,0.029,0.043  c0.05,0.096,0.111,0.187,0.183,0.271c0.017,0.02,0.031,0.042,0.049,0.061c0.077,0.082,0.162,0.158,0.259,0.223l8.988,5.972  c-0.024,0.106-0.04,0.217-0.04,0.331v8.868c0,0.001,0,0.001,0,0.002v0.009c0,0.025,0.006,0.049,0.007,0.073  c0.003,0.072,0.008,0.145,0.022,0.215c0.009,0.047,0.025,0.091,0.039,0.136c0.014,0.048,0.025,0.097,0.044,0.144  c0.018,0.045,0.043,0.085,0.065,0.128c0.023,0.044,0.043,0.088,0.071,0.13c0.026,0.04,0.06,0.076,0.09,0.113  c0.031,0.038,0.059,0.078,0.093,0.113c0.048,0.049,0.103,0.091,0.158,0.133c0.022,0.018,0.04,0.038,0.063,0.054l0.008,0.006l0,0  l17.227,11.78c0.001,0.001,0.002,0.001,0.003,0.002c0.031,0.021,0.066,0.036,0.1,0.055c0.033,0.02,0.065,0.038,0.099,0.055  c0.053,0.025,0.107,0.046,0.164,0.064c0.028,0.01,0.055,0.02,0.083,0.027c0.022,0.006,0.043,0.014,0.065,0.019  c0.106,0.024,0.215,0.039,0.328,0.039c0.001,0,0.002,0.001,0.003,0.001c0,0,0,0,0,0c0,0,0.001,0,0.001,0s0,0,0.001,0c0,0,0,0,0,0  c0.001,0,0.002-0.001,0.003-0.001c0.113,0,0.222-0.015,0.328-0.039c0.022-0.005,0.043-0.013,0.065-0.019  c0.028-0.008,0.055-0.018,0.083-0.027c0.056-0.02,0.111-0.04,0.164-0.064c0.034-0.017,0.066-0.035,0.099-0.054  c0.033-0.02,0.068-0.034,0.1-0.056c0.001-0.001,0.003-0.001,0.004-0.002l17.233-11.786c0.026-0.018,0.046-0.04,0.07-0.06  c0.052-0.04,0.104-0.08,0.15-0.127c0.035-0.035,0.063-0.075,0.095-0.114c0.029-0.037,0.062-0.072,0.089-0.112  c0.027-0.041,0.048-0.086,0.07-0.13c0.022-0.042,0.048-0.083,0.065-0.128c0.02-0.047,0.03-0.095,0.045-0.144  c0.014-0.045,0.03-0.089,0.039-0.136c0.015-0.072,0.019-0.146,0.022-0.219c0.001-0.023,0.007-0.046,0.007-0.069V61.74  c0-0.001,0-0.003,0-0.004v-8.867c0-0.114-0.016-0.224-0.039-0.331l8.988-5.972c0.098-0.065,0.183-0.141,0.26-0.223  c0.018-0.019,0.031-0.04,0.048-0.059c0.072-0.085,0.134-0.176,0.185-0.273c0.008-0.015,0.021-0.026,0.028-0.042  c0.006-0.012,0.008-0.025,0.014-0.037c0.023-0.053,0.041-0.106,0.059-0.161c0.013-0.041,0.027-0.082,0.037-0.123  c0.012-0.05,0.017-0.1,0.022-0.151c0.006-0.046,0.014-0.092,0.015-0.138c0.001-0.049-0.004-0.099-0.007-0.148  c-0.004-0.047-0.005-0.093-0.013-0.14c-0.008-0.047-0.021-0.093-0.034-0.14c-0.013-0.048-0.024-0.096-0.042-0.142  c-0.016-0.041-0.035-0.079-0.055-0.119c-0.024-0.051-0.049-0.102-0.079-0.15c-0.008-0.011-0.011-0.023-0.019-0.035  c-0.016-0.024-0.037-0.043-0.054-0.065c-0.034-0.046-0.069-0.091-0.109-0.133c-0.032-0.035-0.067-0.065-0.103-0.096  c-0.037-0.033-0.074-0.065-0.115-0.094c-0.044-0.032-0.091-0.059-0.139-0.085c-0.026-0.015-0.05-0.034-0.077-0.047l-6.946-3.354  l7.996-4.225c0.009-0.005,0.016-0.011,0.024-0.016c0.026-0.015,0.049-0.034,0.075-0.05c0.079-0.05,0.151-0.105,0.218-0.167  c0.025-0.023,0.05-0.047,0.073-0.073c0.074-0.079,0.139-0.164,0.193-0.255C79.391,35.814,79.4,35.807,79.406,35.795z M60.257,54.706  l-7.079-4.62l14.339-7.73l6.56,3.167L60.257,54.706z M40.232,54.706l-13.818-9.183l6.559-3.167l14.339,7.73L40.232,54.706z   M40.226,26.762l6.992,3.915l-14.242,8.281l-7.451-3.937L40.226,26.762z M50.245,48.259L36.08,40.623l14.165-8.236l14.164,8.236  L50.245,48.259z M53.271,30.676l6.992-3.915l14.701,8.258l-7.451,3.937L53.271,30.676z M39.395,57.751  c0.018,0.012,0.038,0.016,0.056,0.026c0.083,0.05,0.17,0.089,0.26,0.122c0.04,0.015,0.079,0.034,0.12,0.046  c0.123,0.033,0.25,0.053,0.377,0.055c0.005,0,0.01,0.002,0.016,0.002c0,0,0.001,0,0.001,0s0.001,0,0.001,0  c0.005,0,0.011-0.002,0.016-0.002c0.126-0.002,0.251-0.021,0.373-0.054c0.041-0.011,0.078-0.03,0.118-0.045  c0.089-0.032,0.175-0.069,0.258-0.118c0.018-0.011,0.037-0.014,0.054-0.025l7.701-5.025v17.959l-14.234-9.734v-6.451L39.395,57.751z   M65.979,60.957l-14.233,9.734V52.732l7.7,5.025c0.017,0.011,0.035,0.014,0.052,0.024c0.084,0.05,0.172,0.089,0.264,0.121  c0.038,0.014,0.074,0.032,0.112,0.043c0.124,0.033,0.251,0.053,0.38,0.054c0.004,0,0.007,0.002,0.011,0.002h0.001h0.001  c0.004,0,0.007-0.002,0.011-0.002c0.13-0.001,0.258-0.021,0.384-0.055c0.04-0.012,0.078-0.031,0.117-0.046  c0.091-0.033,0.179-0.072,0.262-0.122c0.019-0.012,0.038-0.015,0.056-0.026l4.884-3.245V60.957z"/>
</svg>